<svg xmlns="http://www.w3.org/2000/svg" width="715.111" height="133" viewBox="0 0 715.111 133">
  <defs>
    <style>
      .cls-1 {
        fill: #fff;
        font-size: 100px;
        font-family: SegoeUI-Bold, Segoe UI;
        font-weight: 700;
      }

      .cls-2 {
        fill: #707070;
      }
    </style>
  </defs>
  <g id="Groupe_2" data-name="Groupe 2" transform="translate(-378.5 -192.5)">
    <text id="l" class="cls-1" transform="translate(818.5 300.5)"><tspan x="0" y="0">l</tspan></text>
    <path id="l_-_Contour" data-name="l - Contour" class="cls-2" d="M21.924,1H6.494a1,1,0,0,1-1-1V-74.023a1,1,0,0,1,1-1h15.43a1,1,0,0,1,1,1V0A1,1,0,0,1,21.924,1ZM7.494-1h13.43V-73.023H7.494Z" transform="translate(818.5 300.5)"/>
    <text id="o" class="cls-1" transform="translate(854.5 300.5)"><tspan x="0" y="0">o</tspan></text>
    <path id="o_-_Contour" data-name="o - Contour" class="cls-2" d="M30.322,2.221a34.265,34.265,0,0,1-11.5-1.81A24.1,24.1,0,0,1,9.969-5.072a23.6,23.6,0,0,1-5.6-8.62A31.534,31.534,0,0,1,2.516-24.8,31.919,31.919,0,0,1,4.437-36.215a23.37,23.37,0,0,1,5.814-8.726,25.241,25.241,0,0,1,9.085-5.472,35.427,35.427,0,0,1,11.67-1.808,33.918,33.918,0,0,1,11.446,1.81,23.8,23.8,0,0,1,8.789,5.486,23.841,23.841,0,0,1,5.541,8.49,30.061,30.061,0,0,1,1.836,10.751A33.025,33.025,0,0,1,56.73-14.191a24.307,24.307,0,0,1-5.709,8.9A24.559,24.559,0,0,1,42.009.355,34.39,34.39,0,0,1,30.322,2.221Zm.684-52.441A33.444,33.444,0,0,0,20-48.525a23.254,23.254,0,0,0-8.371,5.038A21.386,21.386,0,0,0,6.305-35.5a29.939,29.939,0,0,0-1.79,10.7A29.552,29.552,0,0,0,6.24-14.4a21.612,21.612,0,0,0,5.129,7.9,22.115,22.115,0,0,0,8.126,5.028A32.283,32.283,0,0,0,30.322.221,32.409,32.409,0,0,0,41.329-1.526a22.573,22.573,0,0,0,8.285-5.19,22.322,22.322,0,0,0,5.241-8.17,31.043,31.043,0,0,0,1.763-10.8,28.077,28.077,0,0,0-1.7-10.037A21.854,21.854,0,0,0,49.834-43.5a21.815,21.815,0,0,0-8.057-5.025A31.936,31.936,0,0,0,31.006-50.221ZM30.811-9.6c-4.173,0-7.367-1.337-9.494-3.973a13.1,13.1,0,0,1-2.366-4.87A25.507,25.507,0,0,1,18.189-25c0-4.8,1.093-8.595,3.248-11.272A11.289,11.289,0,0,1,30.713-40.4c4.029,0,7.114,1.305,9.168,3.88a12.826,12.826,0,0,1,2.281,4.746,25.094,25.094,0,0,1,.732,6.388,28.016,28.016,0,0,1-.723,6.715,13.842,13.842,0,0,1-2.248,4.981C37.886-10.975,34.82-9.6,30.811-9.6Zm-.1-28.809A9.264,9.264,0,0,0,23-35.017C21.134-32.7,20.189-29.334,20.189-25c0,4.545.9,7.968,2.684,10.175a8.057,8.057,0,0,0,3.235,2.4,12.322,12.322,0,0,0,4.7.824c3.393,0,5.85-1.079,7.513-3.3,1.706-2.277,2.571-5.809,2.571-10.5,0-4.417-.867-7.743-2.577-9.887a7.723,7.723,0,0,0-3.1-2.329A11.694,11.694,0,0,0,30.713-38.4Z" transform="translate(854.5 300.5)"/>
    <text id="v" class="cls-1" transform="translate(691.5 300.5)"><tspan x="0" y="0">v</tspan></text>
    <path id="v_-_Contour" data-name="v - Contour" class="cls-2" d="M.2-51H16.7a1,1,0,0,1,.962.729l8.691,30.811q.534,1.906.911,3.623.374-1.576.876-3.333l8.887-31.1A1,1,0,0,1,37.988-51H54.1a1,1,0,0,1,.821.429,1,1,0,0,1,.116.919l-18.6,50A1,1,0,0,1,35.5,1H17.92a1,1,0,0,1-.943-.666l-17.725-50a1,1,0,0,1,.126-.911A1,1,0,0,1,.2-51Zm15.747,2H1.611L18.626-1H34.8L52.663-49H38.743L30.063-18.622A49.712,49.712,0,0,0,28.29-10.2a1,1,0,0,1-1,.9h-.2a1,1,0,0,1-1-.933,44.241,44.241,0,0,0-1.674-8.683Z" transform="translate(691.5 300.5)"/>
    <text id="p" class="cls-1" transform="translate(920.5 300.5)"><tspan x="0" y="0">p</tspan></text>
    <path id="p_-_Contour" data-name="p - Contour" class="cls-2" d="M21.924,24H6.494a1,1,0,0,1-1-1V-50a1,1,0,0,1,1-1h15.43a1,1,0,0,1,1,1v4.745a18.946,18.946,0,0,1,15.26-6.966c6.768,0,12.083,2.37,15.8,7.043a23.824,23.824,0,0,1,4.15,8.209A37.812,37.812,0,0,1,59.5-26.416a39.408,39.408,0,0,1-1.588,11.561,26.833,26.833,0,0,1-4.814,9.139A21.181,21.181,0,0,1,45.542.237a22.912,22.912,0,0,1-9.653,1.984c-5.381,0-9.73-1.807-12.965-5.378V23A1,1,0,0,1,21.924,24ZM7.494,22h13.43V-5.811a1,1,0,0,1,1-1h.2a1,1,0,0,1,.829.441,14.541,14.541,0,0,0,5.436,4.942,16.36,16.36,0,0,0,7.5,1.648A20.932,20.932,0,0,0,44.7-1.58a19.2,19.2,0,0,0,6.84-5.4A24.844,24.844,0,0,0,56-15.443a37.422,37.422,0,0,0,1.5-10.973,35.828,35.828,0,0,0-1.284-9.992,21.838,21.838,0,0,0-3.8-7.526A15.885,15.885,0,0,0,46.39-48.64a20.144,20.144,0,0,0-8.206-1.58,18.023,18.023,0,0,0-8.714,2.063,18.315,18.315,0,0,0-6.513,6.224,1,1,0,0,1-.837.453h-.2a1,1,0,0,1-1-1V-49H7.494ZM31.592-9.6a9.9,9.9,0,0,1-7.945-3.63,13.752,13.752,0,0,1-2.967-9.089v-4a15.342,15.342,0,0,1,3.236-10.139A10.629,10.629,0,0,1,32.422-40.4c3.727,0,6.58,1.239,8.48,3.682A12.248,12.248,0,0,1,43-32.239a24.225,24.225,0,0,1,.673,6.019,28.378,28.378,0,0,1-.757,6.866,15.552,15.552,0,0,1-2.334,5.262A10.451,10.451,0,0,1,31.592-9.6Zm.83-28.809a8.6,8.6,0,0,0-6.972,3.231,13.415,13.415,0,0,0-2.77,8.855v4a11.818,11.818,0,0,0,2.5,7.806,7.88,7.88,0,0,0,6.41,2.913,8.444,8.444,0,0,0,7.364-3.657c1.8-2.533,2.72-6.223,2.72-10.968,0-4.146-.792-7.266-2.353-9.274C37.8-37.452,35.543-38.4,32.422-38.4Z" transform="translate(920.5 300.5)"/>
    <text id="d" class="cls-1" transform="translate(559.5 300.5)"><tspan x="0" y="0">d</tspan></text>
    <path id="d_-_Contour" data-name="d - Contour" class="cls-2" d="M24.316,2.221A20,20,0,0,1,8.472-4.742a22.909,22.909,0,0,1-4.483-8.287A36.894,36.894,0,0,1,2.516-23.877,38.053,38.053,0,0,1,4.137-35.349,26.214,26.214,0,0,1,9.05-44.395a21.651,21.651,0,0,1,7.628-5.869,23.222,23.222,0,0,1,9.641-1.957c5.576,0,9.824,1.682,12.672,5.008V-74.023a1,1,0,0,1,1-1H55.42a1,1,0,0,1,1,1V0a1,1,0,0,1-1,1H39.99a1,1,0,0,1-1-1V-4.135C35.381.085,30.458,2.221,24.316,2.221Zm2-52.441A21.241,21.241,0,0,0,17.5-48.442a19.668,19.668,0,0,0-6.923,5.337,24.225,24.225,0,0,0-4.535,8.361A36.068,36.068,0,0,0,4.516-23.877,34.912,34.912,0,0,0,5.9-13.619a20.925,20.925,0,0,0,4.086,7.57,17.627,17.627,0,0,0,6.273,4.7A19.957,19.957,0,0,0,24.316.221a18.169,18.169,0,0,0,8.508-1.912A16.441,16.441,0,0,0,38.957-7.43a1,1,0,0,1,.838-.455h.2a1,1,0,0,1,1,1V-1H54.42V-73.023H40.99v28.736a1,1,0,0,1-1,1h-.2a1,1,0,0,1-.876-.519A11.475,11.475,0,0,0,34.064-48.6,16.868,16.868,0,0,0,26.318-50.221ZM29.687-9.6a10.234,10.234,0,0,1-8.5-3.949c-1.987-2.545-3-6.169-3-10.772,0-4.878,1.032-8.8,3.067-11.641A10.284,10.284,0,0,1,30.078-40.4,10.353,10.353,0,0,1,38.2-36.842a12.853,12.853,0,0,1,3.081,8.766v3.76c0,4.344-1.066,7.9-3.168,10.579A10.274,10.274,0,0,1,29.687-9.6ZM30.078-38.4a8.278,8.278,0,0,0-7.194,3.61c-1.788,2.5-2.694,6.025-2.694,10.478,0,4.146.865,7.356,2.571,9.541a8.222,8.222,0,0,0,6.927,3.18,8.258,8.258,0,0,0,6.855-3.378c1.818-2.314,2.74-5.458,2.74-9.343v-3.76a12.537,12.537,0,0,0-.652-4.138A9.968,9.968,0,0,0,36.7-35.522,8.326,8.326,0,0,0,30.078-38.4Z" transform="translate(559.5 300.5)"/>
    <text id="e" class="cls-1" transform="translate(629.5 300.5)"><tspan x="0" y="0">e</tspan></text>
    <path id="e_-_Contour" data-name="e - Contour" class="cls-2" d="M29,2.221A33.018,33.018,0,0,1,17.913.484,22.381,22.381,0,0,1,9.5-4.787,22.528,22.528,0,0,1,4.246-13.2,32.8,32.8,0,0,1,2.516-24.219a33.423,33.423,0,0,1,1.868-11.5,24.547,24.547,0,0,1,5.649-8.93,25.359,25.359,0,0,1,8.387-5.677,26.519,26.519,0,0,1,10.1-1.893,28.052,28.052,0,0,1,10.057,1.69,19.935,19.935,0,0,1,7.6,5.127,22.293,22.293,0,0,1,4.7,8.01A32.082,32.082,0,0,1,52.416-27.1v6.494a1,1,0,0,1-1,1H19.909a11.689,11.689,0,0,0,.946,3.34,8.368,8.368,0,0,0,2.386,3.043c2.095,1.663,5.217,2.505,9.278,2.505a28.84,28.84,0,0,0,7.491-.942,23.977,23.977,0,0,0,6.481-2.812,1,1,0,0,1,1.015-.027,1,1,0,0,1,.515.875V-2.49a1,1,0,0,1-.528.882,30.5,30.5,0,0,1-8.241,2.881A51.183,51.183,0,0,1,29,2.221Zm-.488-52.441a24.532,24.532,0,0,0-9.338,1.744,23.371,23.371,0,0,0-7.726,5.236,22.561,22.561,0,0,0-5.19,8.209A31.44,31.44,0,0,0,4.516-24.219,30.822,30.822,0,0,0,6.13-13.868,20.544,20.544,0,0,0,10.913-6.2a20.4,20.4,0,0,0,7.672,4.8A31.038,31.038,0,0,0,29,.221C35.912.221,41.633-.9,46.021-3.1v-8.793a28.391,28.391,0,0,1-13.5,3.174C28-8.717,24.455-9.706,22-11.656c-2.5-1.988-3.917-4.975-4.2-8.878a1,1,0,0,1,.265-.753,1,1,0,0,1,.732-.319H50.416V-27.1a30.1,30.1,0,0,0-1.442-9.652,20.306,20.306,0,0,0-4.275-7.3,17.952,17.952,0,0,0-6.843-4.615A26.073,26.073,0,0,0,28.516-50.221Zm8.594,21.143H18.7a1,1,0,0,1-.751-.339,1,1,0,0,1-.241-.787,15,15,0,0,1,3.537-8.2,9.294,9.294,0,0,1,7.171-3.415c3.2,0,5.655,1.028,7.3,3.057,1.59,1.965,2.4,4.887,2.4,8.686A1,1,0,0,1,37.109-29.078Zm-17.233-2H36.089c-.121-2.833-.768-4.993-1.929-6.428-1.26-1.557-3.138-2.315-5.741-2.315a7.281,7.281,0,0,0-5.671,2.737A12.658,12.658,0,0,0,19.876-31.078Z" transform="translate(629.5 300.5)"/>
    <text id="e-2" data-name="e" class="cls-1" transform="translate(754.5 300.5)"><tspan x="0" y="0">e</tspan></text>
    <path id="e_-_Contour-2" data-name="e - Contour" class="cls-2" d="M29,2.221A33.018,33.018,0,0,1,17.913.484,22.381,22.381,0,0,1,9.5-4.787,22.528,22.528,0,0,1,4.246-13.2,32.8,32.8,0,0,1,2.516-24.219a33.423,33.423,0,0,1,1.868-11.5,24.547,24.547,0,0,1,5.649-8.93,25.359,25.359,0,0,1,8.387-5.677,26.519,26.519,0,0,1,10.1-1.893,28.052,28.052,0,0,1,10.057,1.69,19.935,19.935,0,0,1,7.6,5.127,22.293,22.293,0,0,1,4.7,8.01A32.082,32.082,0,0,1,52.416-27.1v6.494a1,1,0,0,1-1,1H19.909a11.689,11.689,0,0,0,.946,3.34,8.368,8.368,0,0,0,2.386,3.043c2.095,1.663,5.217,2.505,9.278,2.505a28.84,28.84,0,0,0,7.491-.942,23.977,23.977,0,0,0,6.481-2.812,1,1,0,0,1,1.015-.027,1,1,0,0,1,.515.875V-2.49a1,1,0,0,1-.528.882,30.5,30.5,0,0,1-8.241,2.881A51.183,51.183,0,0,1,29,2.221Zm-.488-52.441a24.532,24.532,0,0,0-9.338,1.744,23.371,23.371,0,0,0-7.726,5.236,22.561,22.561,0,0,0-5.19,8.209A31.44,31.44,0,0,0,4.516-24.219,30.822,30.822,0,0,0,6.13-13.868,20.544,20.544,0,0,0,10.913-6.2a20.4,20.4,0,0,0,7.672,4.8A31.038,31.038,0,0,0,29,.221C35.912.221,41.633-.9,46.021-3.1v-8.793a28.391,28.391,0,0,1-13.5,3.174C28-8.717,24.455-9.706,22-11.656c-2.5-1.988-3.917-4.975-4.2-8.878a1,1,0,0,1,.265-.753,1,1,0,0,1,.732-.319H50.416V-27.1a30.1,30.1,0,0,0-1.442-9.652,20.306,20.306,0,0,0-4.275-7.3,17.952,17.952,0,0,0-6.843-4.615A26.073,26.073,0,0,0,28.516-50.221Zm8.594,21.143H18.7a1,1,0,0,1-.751-.339,1,1,0,0,1-.241-.787,15,15,0,0,1,3.537-8.2,9.294,9.294,0,0,1,7.171-3.415c3.2,0,5.655,1.028,7.3,3.057,1.59,1.965,2.4,4.887,2.4,8.686A1,1,0,0,1,37.109-29.078Zm-17.233-2H36.089c-.121-2.833-.768-4.993-1.929-6.428-1.26-1.557-3.138-2.315-5.741-2.315a7.281,7.281,0,0,0-5.671,2.737A12.658,12.658,0,0,0,19.876-31.078Z" transform="translate(754.5 300.5)"/>
    <text id="r" class="cls-1" transform="translate(1053.5 300.5)"><tspan x="0" y="0">r</tspan></text>
    <path id="r_-_Contour" data-name="r - Contour" class="cls-2" d="M35.3-51.879a10.776,10.776,0,0,1,4.2.667,1,1,0,0,1,.606.919v14.209a1,1,0,0,1-.489.86,1,1,0,0,1-.989.019A12.462,12.462,0,0,0,32.617-36.6a8.337,8.337,0,0,0-7.068,3.3c-1.742,2.267-2.625,5.438-2.625,9.425V0a1,1,0,0,1-1,1H6.494a1,1,0,0,1-1-1V-50a1,1,0,0,1,1-1h15.43a1,1,0,0,1,1,1v5.168A13.518,13.518,0,0,1,35.3-51.879Zm2.809,2.3a11.02,11.02,0,0,0-2.809-.3,11.89,11.89,0,0,0-7.446,2.331,15.367,15.367,0,0,0-4.8,7.164,1,1,0,0,1-.941.661h-.2a1,1,0,0,1-1-1V-49H7.494V-1h13.43V-23.877c0-4.437,1.022-8.018,3.039-10.643A10.349,10.349,0,0,1,32.617-38.6a15.223,15.223,0,0,1,5.494.954Z" transform="translate(1053.5 300.5)"/>
    <text id="e-3" data-name="e" class="cls-1" transform="translate(990.5 300.5)"><tspan x="0" y="0">e</tspan></text>
    <path id="e_-_Contour-3" data-name="e - Contour" class="cls-2" d="M29,2.221A33.018,33.018,0,0,1,17.913.484,22.381,22.381,0,0,1,9.5-4.787,22.528,22.528,0,0,1,4.246-13.2,32.8,32.8,0,0,1,2.516-24.219a33.423,33.423,0,0,1,1.868-11.5,24.547,24.547,0,0,1,5.649-8.93,25.359,25.359,0,0,1,8.387-5.677,26.519,26.519,0,0,1,10.1-1.893,28.052,28.052,0,0,1,10.057,1.69,19.935,19.935,0,0,1,7.6,5.127,22.293,22.293,0,0,1,4.7,8.01A32.082,32.082,0,0,1,52.416-27.1v6.494a1,1,0,0,1-1,1H19.909a11.689,11.689,0,0,0,.946,3.34,8.368,8.368,0,0,0,2.386,3.043c2.095,1.663,5.217,2.505,9.278,2.505a28.84,28.84,0,0,0,7.491-.942,23.977,23.977,0,0,0,6.481-2.812,1,1,0,0,1,1.015-.027,1,1,0,0,1,.515.875V-2.49a1,1,0,0,1-.528.882,30.5,30.5,0,0,1-8.241,2.881A51.183,51.183,0,0,1,29,2.221Zm-.488-52.441a24.532,24.532,0,0,0-9.338,1.744,23.371,23.371,0,0,0-7.726,5.236,22.561,22.561,0,0,0-5.19,8.209A31.44,31.44,0,0,0,4.516-24.219,30.822,30.822,0,0,0,6.13-13.868,20.544,20.544,0,0,0,10.913-6.2a20.4,20.4,0,0,0,7.672,4.8A31.038,31.038,0,0,0,29,.221C35.912.221,41.633-.9,46.021-3.1v-8.793a28.391,28.391,0,0,1-13.5,3.174C28-8.717,24.455-9.706,22-11.656c-2.5-1.988-3.917-4.975-4.2-8.878a1,1,0,0,1,.265-.753,1,1,0,0,1,.732-.319H50.416V-27.1a30.1,30.1,0,0,0-1.442-9.652,20.306,20.306,0,0,0-4.275-7.3,17.952,17.952,0,0,0-6.843-4.615A26.073,26.073,0,0,0,28.516-50.221Zm8.594,21.143H18.7a1,1,0,0,1-.751-.339,1,1,0,0,1-.241-.787,15,15,0,0,1,3.537-8.2,9.294,9.294,0,0,1,7.171-3.415c3.2,0,5.655,1.028,7.3,3.057,1.59,1.965,2.4,4.887,2.4,8.686A1,1,0,0,1,37.109-29.078Zm-17.233-2H36.089c-.121-2.833-.768-4.993-1.929-6.428-1.26-1.557-3.138-2.315-5.741-2.315a7.281,7.281,0,0,0-5.671,2.737A12.658,12.658,0,0,0,19.876-31.078Z" transform="translate(990.5 300.5)"/>
    <text id="U" class="cls-1" transform="translate(378.5 300.5)"><tspan x="0" y="0">U</tspan></text>
    <path id="U_-_Contour" data-name="U - Contour" class="cls-2" d="M35.693,2.221A37.94,37.94,0,0,1,22.879.236,23.216,23.216,0,0,1,13.573-5.8,25.707,25.707,0,0,1,8-15.815,47.061,47.061,0,0,1,6.178-29.59V-70.02a1,1,0,0,1,1-1H23a1,1,0,0,1,1,1v40.625c0,5.409,1.046,9.49,3.108,12.128a9.382,9.382,0,0,0,3.755,2.882,13.8,13.8,0,0,0,5.418.982A13.744,13.744,0,0,0,41.6-14.35a9.173,9.173,0,0,0,3.678-2.776c2.019-2.54,3.042-6.471,3.042-11.683V-70.02a1,1,0,0,1,1-1H65.088a1,1,0,0,1,1,1v39.7a47.854,47.854,0,0,1-1.882,14.1A26.248,26.248,0,0,1,58.471-5.983,23.917,23.917,0,0,1,48.89.191,39.319,39.319,0,0,1,35.693,2.221ZM8.178-69.02v39.43A45.086,45.086,0,0,0,9.916-16.405a23.73,23.73,0,0,0,5.125,9.244,21.238,21.238,0,0,0,8.516,5.515A35.966,35.966,0,0,0,35.693.221,37.345,37.345,0,0,0,48.217-1.692a21.938,21.938,0,0,0,8.791-5.654A24.271,24.271,0,0,0,62.3-16.819a45.879,45.879,0,0,0,1.792-13.5v-38.7H50.316v40.211a29.32,29.32,0,0,1-.848,7.434,14.871,14.871,0,0,1-2.628,5.493C44.478-12.909,40.925-11.4,36.279-11.4c-4.73,0-8.346-1.559-10.749-4.632a15.469,15.469,0,0,1-2.67-5.674A30.8,30.8,0,0,1,22-29.395V-69.02Z" transform="translate(378.5 300.5)"/>
    <text id="I" class="cls-1" transform="translate(457.5 300.5)"><tspan x="0" y="0">I</tspan></text>
    <path id="I_-_Contour" data-name="I - Contour" class="cls-2" d="M23.779,1H8.008a1,1,0,0,1-1-1V-70.02a1,1,0,0,1,1-1H23.779a1,1,0,0,1,1,1V0A1,1,0,0,1,23.779,1ZM9.008-1H22.779V-69.02H9.008Z" transform="translate(457.5 300.5)"/>
  </g>
</svg>
