<svg xmlns="http://www.w3.org/2000/svg" width="852.111" height="133" viewBox="0 0 852.111 133">
  <defs>
    <style>
      .cls-1 {
        fill: #fff;
        font-size: 100px;
        font-family: SegoeUI-Bold, Segoe UI;
        font-weight: 700;
      }

      .cls-2 {
        fill: #707070;
      }
    </style>
  </defs>
  <g id="Groupe_1" data-name="Groupe 1" transform="translate(-178.5 -55.5)">
    <text id="U" class="cls-1" transform="translate(178.5 163.5)"><tspan x="0" y="0">U</tspan></text>
    <path id="U_-_Contour" data-name="U - Contour" class="cls-2" d="M35.693,2.221A37.94,37.94,0,0,1,22.879.236,23.216,23.216,0,0,1,13.573-5.8,25.707,25.707,0,0,1,8-15.815,47.061,47.061,0,0,1,6.178-29.59V-70.02a1,1,0,0,1,1-1H23a1,1,0,0,1,1,1v40.625c0,5.409,1.046,9.49,3.108,12.128a9.382,9.382,0,0,0,3.755,2.882,13.8,13.8,0,0,0,5.418.982A13.744,13.744,0,0,0,41.6-14.35a9.173,9.173,0,0,0,3.678-2.776c2.019-2.54,3.042-6.471,3.042-11.683V-70.02a1,1,0,0,1,1-1H65.088a1,1,0,0,1,1,1v39.7a47.854,47.854,0,0,1-1.882,14.1A26.248,26.248,0,0,1,58.471-5.983,23.917,23.917,0,0,1,48.89.191,39.319,39.319,0,0,1,35.693,2.221ZM8.178-69.02v39.43A45.086,45.086,0,0,0,9.916-16.405a23.73,23.73,0,0,0,5.125,9.244,21.238,21.238,0,0,0,8.516,5.515A35.966,35.966,0,0,0,35.693.221,37.345,37.345,0,0,0,48.217-1.692a21.938,21.938,0,0,0,8.791-5.654A24.271,24.271,0,0,0,62.3-16.819a45.879,45.879,0,0,0,1.792-13.5v-38.7H50.316v40.211a29.32,29.32,0,0,1-.848,7.434,14.871,14.871,0,0,1-2.628,5.493C44.478-12.909,40.925-11.4,36.279-11.4c-4.73,0-8.346-1.559-10.749-4.632a15.469,15.469,0,0,1-2.67-5.674A30.8,30.8,0,0,1,22-29.395V-69.02Z" transform="translate(178.5 163.5)"/>
    <text id="X" class="cls-1" transform="translate(257.5 163.5)"><tspan x="0" y="0">X</tspan></text>
    <path id="X_-_Contour" data-name="X - Contour" class="cls-2" d="M65.186,1h-18.7A1,1,0,0,1,45.6.468l-12.059-22.8a10.5,10.5,0,0,1-.708-1.786q-.306.856-.7,1.872a1,1,0,0,1-.051.11L19.973.472A1,1,0,0,1,19.092,1H.293A1,1,0,0,1-.584.481,1,1,0,0,1-.55-.537l21.987-34.5L1.333-69.516a1,1,0,0,1,0-1,1,1,0,0,1,.867-.5H21.387a1,1,0,0,1,.9.57l10.01,21,0,0a32.093,32.093,0,0,1,1.33,3.339q.547-1.512,1.328-3.478a1,1,0,0,1,.048-.1l11.133-20.8a1,1,0,0,1,.882-.528H64.6a1,1,0,0,1,.871.509,1,1,0,0,1-.015,1.009l-20.681,34.2L66.039-.522A1,1,0,0,1,66.058.489,1,1,0,0,1,65.186,1Zm-18.1-2H63.4L42.75-34.781a1,1,0,0,1,0-1.039l20.078-33.2H47.62L36.8-48.8c-1.046,2.633-1.767,4.636-2.144,5.956a1,1,0,0,1-.962.725h-.2a1,1,0,0,1-.965-.738A35.468,35.468,0,0,0,30.493-48.6L20.756-69.02H3.938L23.471-35.513a1,1,0,0,1-.021,1.041L2.116-1H18.493l11.8-22.026A34.479,34.479,0,0,0,31.834-27.7a1,1,0,0,1,.978-.793h.2a1,1,0,0,1,.978.79A18.448,18.448,0,0,0,35.3-23.277l0,.007Z" transform="translate(257.5 163.5)"/>
    <text id="_-" data-name="-" class="cls-1" transform="translate(331.5 163.5)"><tspan x="0" y="0">-</tspan></text>
    <path id="_-_-_Contour" data-name="- - Contour" class="cls-2" d="M33.691-20.289H6.982a1,1,0,0,1-1-1V-32.08a1,1,0,0,1,1-1H33.691a1,1,0,0,1,1,1v10.791A1,1,0,0,1,33.691-20.289Zm-25.709-2H32.691V-31.08H7.982Z" transform="translate(331.5 163.5)"/>
    <text id="U-2" data-name="U" class="cls-1" transform="translate(378.5 163.5)"><tspan x="0" y="0">U</tspan></text>
    <path id="U_-_Contour-2" data-name="U - Contour" class="cls-2" d="M35.693,2.221A37.94,37.94,0,0,1,22.879.236,23.216,23.216,0,0,1,13.573-5.8,25.707,25.707,0,0,1,8-15.815,47.061,47.061,0,0,1,6.178-29.59V-70.02a1,1,0,0,1,1-1H23a1,1,0,0,1,1,1v40.625c0,5.409,1.046,9.49,3.108,12.128a9.382,9.382,0,0,0,3.755,2.882,13.8,13.8,0,0,0,5.418.982A13.744,13.744,0,0,0,41.6-14.35a9.173,9.173,0,0,0,3.678-2.776c2.019-2.54,3.042-6.471,3.042-11.683V-70.02a1,1,0,0,1,1-1H65.088a1,1,0,0,1,1,1v39.7a47.854,47.854,0,0,1-1.882,14.1A26.248,26.248,0,0,1,58.471-5.983,23.917,23.917,0,0,1,48.89.191,39.319,39.319,0,0,1,35.693,2.221ZM8.178-69.02v39.43A45.086,45.086,0,0,0,9.916-16.405a23.73,23.73,0,0,0,5.125,9.244,21.238,21.238,0,0,0,8.516,5.515A35.966,35.966,0,0,0,35.693.221,37.345,37.345,0,0,0,48.217-1.692a21.938,21.938,0,0,0,8.791-5.654A24.271,24.271,0,0,0,62.3-16.819a45.879,45.879,0,0,0,1.792-13.5v-38.7H50.316v40.211a29.32,29.32,0,0,1-.848,7.434,14.871,14.871,0,0,1-2.628,5.493C44.478-12.909,40.925-11.4,36.279-11.4c-4.73,0-8.346-1.559-10.749-4.632a15.469,15.469,0,0,1-2.67-5.674A30.8,30.8,0,0,1,22-29.395V-69.02Z" transform="translate(378.5 163.5)"/>
    <text id="I" class="cls-1" transform="translate(457.5 163.5)"><tspan x="0" y="0">I</tspan></text>
    <path id="I_-_Contour" data-name="I - Contour" class="cls-2" d="M23.779,1H8.008a1,1,0,0,1-1-1V-70.02a1,1,0,0,1,1-1H23.779a1,1,0,0,1,1,1V0A1,1,0,0,1,23.779,1ZM9.008-1H22.779V-69.02H9.008Z" transform="translate(457.5 163.5)"/>
    <text id="d" class="cls-1" transform="translate(559.5 163.5)"><tspan x="0" y="0">d</tspan></text>
    <path id="d_-_Contour" data-name="d - Contour" class="cls-2" d="M24.316,2.221A20,20,0,0,1,8.472-4.742a22.909,22.909,0,0,1-4.483-8.287A36.894,36.894,0,0,1,2.516-23.877,38.053,38.053,0,0,1,4.137-35.349,26.214,26.214,0,0,1,9.05-44.395a21.651,21.651,0,0,1,7.628-5.869,23.222,23.222,0,0,1,9.641-1.957c5.576,0,9.824,1.682,12.672,5.008V-74.023a1,1,0,0,1,1-1H55.42a1,1,0,0,1,1,1V0a1,1,0,0,1-1,1H39.99a1,1,0,0,1-1-1V-4.135C35.381.085,30.458,2.221,24.316,2.221Zm2-52.441A21.241,21.241,0,0,0,17.5-48.442a19.668,19.668,0,0,0-6.923,5.337,24.225,24.225,0,0,0-4.535,8.361A36.068,36.068,0,0,0,4.516-23.877,34.912,34.912,0,0,0,5.9-13.619a20.925,20.925,0,0,0,4.086,7.57,17.627,17.627,0,0,0,6.273,4.7A19.957,19.957,0,0,0,24.316.221a18.169,18.169,0,0,0,8.508-1.912A16.441,16.441,0,0,0,38.957-7.43a1,1,0,0,1,.838-.455h.2a1,1,0,0,1,1,1V-1H54.42V-73.023H40.99v28.736a1,1,0,0,1-1,1h-.2a1,1,0,0,1-.876-.519A11.475,11.475,0,0,0,34.064-48.6,16.868,16.868,0,0,0,26.318-50.221ZM29.687-9.6a10.234,10.234,0,0,1-8.5-3.949c-1.987-2.545-3-6.169-3-10.772,0-4.878,1.032-8.8,3.067-11.641A10.284,10.284,0,0,1,30.078-40.4,10.353,10.353,0,0,1,38.2-36.842a12.853,12.853,0,0,1,3.081,8.766v3.76c0,4.344-1.066,7.9-3.168,10.579A10.274,10.274,0,0,1,29.687-9.6ZM30.078-38.4a8.278,8.278,0,0,0-7.194,3.61c-1.788,2.5-2.694,6.025-2.694,10.478,0,4.146.865,7.356,2.571,9.541a8.222,8.222,0,0,0,6.927,3.18,8.258,8.258,0,0,0,6.855-3.378c1.818-2.314,2.74-5.458,2.74-9.343v-3.76a12.537,12.537,0,0,0-.652-4.138A9.968,9.968,0,0,0,36.7-35.522,8.326,8.326,0,0,0,30.078-38.4Z" transform="translate(559.5 163.5)"/>
    <text id="e" class="cls-1" transform="translate(629.5 163.5)"><tspan x="0" y="0">e</tspan></text>
    <path id="e_-_Contour" data-name="e - Contour" class="cls-2" d="M29,2.221A33.018,33.018,0,0,1,17.913.484,22.381,22.381,0,0,1,9.5-4.787,22.528,22.528,0,0,1,4.246-13.2,32.8,32.8,0,0,1,2.516-24.219a33.423,33.423,0,0,1,1.868-11.5,24.547,24.547,0,0,1,5.649-8.93,25.359,25.359,0,0,1,8.387-5.677,26.519,26.519,0,0,1,10.1-1.893,28.052,28.052,0,0,1,10.057,1.69,19.935,19.935,0,0,1,7.6,5.127,22.293,22.293,0,0,1,4.7,8.01A32.082,32.082,0,0,1,52.416-27.1v6.494a1,1,0,0,1-1,1H19.909a11.689,11.689,0,0,0,.946,3.34,8.368,8.368,0,0,0,2.386,3.043c2.095,1.663,5.217,2.505,9.278,2.505a28.84,28.84,0,0,0,7.491-.942,23.977,23.977,0,0,0,6.481-2.812,1,1,0,0,1,1.015-.027,1,1,0,0,1,.515.875V-2.49a1,1,0,0,1-.528.882,30.5,30.5,0,0,1-8.241,2.881A51.183,51.183,0,0,1,29,2.221Zm-.488-52.441a24.532,24.532,0,0,0-9.338,1.744,23.371,23.371,0,0,0-7.726,5.236,22.561,22.561,0,0,0-5.19,8.209A31.44,31.44,0,0,0,4.516-24.219,30.822,30.822,0,0,0,6.13-13.868,20.544,20.544,0,0,0,10.913-6.2a20.4,20.4,0,0,0,7.672,4.8A31.038,31.038,0,0,0,29,.221C35.912.221,41.633-.9,46.021-3.1v-8.793a28.391,28.391,0,0,1-13.5,3.174C28-8.717,24.455-9.706,22-11.656c-2.5-1.988-3.917-4.975-4.2-8.878a1,1,0,0,1,.265-.753,1,1,0,0,1,.732-.319H50.416V-27.1a30.1,30.1,0,0,0-1.442-9.652,20.306,20.306,0,0,0-4.275-7.3,17.952,17.952,0,0,0-6.843-4.615A26.073,26.073,0,0,0,28.516-50.221Zm8.594,21.143H18.7a1,1,0,0,1-.751-.339,1,1,0,0,1-.241-.787,15,15,0,0,1,3.537-8.2,9.294,9.294,0,0,1,7.171-3.415c3.2,0,5.655,1.028,7.3,3.057,1.59,1.965,2.4,4.887,2.4,8.686A1,1,0,0,1,37.109-29.078Zm-17.233-2H36.089c-.121-2.833-.768-4.993-1.929-6.428-1.26-1.557-3.138-2.315-5.741-2.315a7.281,7.281,0,0,0-5.671,2.737A12.658,12.658,0,0,0,19.876-31.078Z" transform="translate(629.5 163.5)"/>
    <text id="s" class="cls-1" transform="translate(694.5 163.5)"><tspan x="0" y="0">s</tspan></text>
    <path id="s_-_Contour" data-name="s - Contour" class="cls-2" d="M18.506,2.221A45.882,45.882,0,0,1,2.883-.378a1,1,0,0,1-.66-.941v-12.5a1,1,0,0,1,.508-.871,1,1,0,0,1,1.008.014A32.006,32.006,0,0,0,11.1-11.359a24.3,24.3,0,0,0,6.869,1.082A14.47,14.47,0,0,0,24.01-11.3a2.653,2.653,0,0,0,1.8-2.514,2.158,2.158,0,0,0-.747-1.7,9.046,9.046,0,0,0-2.485-1.532,30.453,30.453,0,0,0-3.569-1.276c-1.355-.4-2.679-.849-3.937-1.345a38.116,38.116,0,0,1-5.384-2.481,16.237,16.237,0,0,1-4.057-3.2,12.853,12.853,0,0,1-2.542-4.286,16.842,16.842,0,0,1-.864-5.66A14.745,14.745,0,0,1,4.2-43.047a16.016,16.016,0,0,1,5.2-5.284,23.409,23.409,0,0,1,7.293-2.961,37.577,37.577,0,0,1,8.4-.929,46.6,46.6,0,0,1,6.887.524,51.534,51.534,0,0,1,6.872,1.519,1,1,0,0,1,.718.959V-37.3a1,1,0,0,1-.5.867,1,1,0,0,1-1,0A23.461,23.461,0,0,0,32.052-38.9a25.591,25.591,0,0,0-6.32-.823,13.617,13.617,0,0,0-2.66.249,8.458,8.458,0,0,0-2.117.7,3.383,3.383,0,0,0-1.25,1.012,2.041,2.041,0,0,0-.395,1.243,2.394,2.394,0,0,0,.622,1.675,6.681,6.681,0,0,0,2,1.459,21.76,21.76,0,0,0,3.01,1.213c1.156.374,2.319.762,3.459,1.153l.005,0a45.964,45.964,0,0,1,5.691,2.4,18.877,18.877,0,0,1,4.51,3.148,12.744,12.744,0,0,1,2.966,4.342A15.281,15.281,0,0,1,42.6-15.283a15.309,15.309,0,0,1-2.076,8.115,16.5,16.5,0,0,1-5.454,5.455,24.353,24.353,0,0,1-7.687,3.008A42.066,42.066,0,0,1,18.506,2.221ZM4.223-2.027A44.211,44.211,0,0,0,18.506.221,40.064,40.064,0,0,0,26.961-.66,22.365,22.365,0,0,0,34.02-3.414a14.521,14.521,0,0,0,4.8-4.8A13.351,13.351,0,0,0,40.6-15.283a13.315,13.315,0,0,0-.876-5.086,10.757,10.757,0,0,0-2.5-3.665,16.885,16.885,0,0,0-4.035-2.809,43.963,43.963,0,0,0-5.439-2.29c-1.128-.387-2.279-.771-3.423-1.141A23.762,23.762,0,0,1,21.037-31.6a8.659,8.659,0,0,1-2.591-1.91,4.369,4.369,0,0,1-1.136-3.013,4.029,4.029,0,0,1,.777-2.419,5.356,5.356,0,0,1,1.973-1.625,10.446,10.446,0,0,1,2.619-.867,15.618,15.618,0,0,1,3.053-.288,27.59,27.59,0,0,1,6.815.886,25.619,25.619,0,0,1,5.027,1.859v-9.487a49.537,49.537,0,0,0-5.887-1.255,44.59,44.59,0,0,0-6.59-.5,35.575,35.575,0,0,0-7.955.878,21.419,21.419,0,0,0-6.672,2.7,14.034,14.034,0,0,0-4.561,4.628A12.784,12.784,0,0,0,4.223-35.3a14.873,14.873,0,0,0,.747,4.985,10.862,10.862,0,0,0,2.146,3.624,14.247,14.247,0,0,0,3.56,2.8,36.138,36.138,0,0,0,5.107,2.35l.014.006c1.2.475,2.472.909,3.771,1.289a32.457,32.457,0,0,1,3.8,1.361A11.02,11.02,0,0,1,26.405-17a4.139,4.139,0,0,1,1.4,3.181A4.6,4.6,0,0,1,24.867-9.5a16.366,16.366,0,0,1-6.9,1.219,26.287,26.287,0,0,1-7.438-1.164,32.876,32.876,0,0,1-6.308-2.652Z" transform="translate(694.5 163.5)"/>
    <text id="i-2" data-name="i" class="cls-1" transform="translate(748.5 163.5)"><tspan x="0" y="0">i</tspan></text>
    <path id="i_-_Contour-2" data-name="i - Contour" class="cls-2" d="M14.307-74.779a10.3,10.3,0,0,1,7.086,2.451,8.232,8.232,0,0,1,2.8,6.411,8.438,8.438,0,0,1-2.792,6.5,10.171,10.171,0,0,1-7.094,2.507A10.018,10.018,0,0,1,7.229-59.5a8.469,8.469,0,0,1-2.809-6.42,8.2,8.2,0,0,1,2.829-6.414A10.319,10.319,0,0,1,14.307-74.779Zm0,15.869A8.133,8.133,0,0,0,20.054-60.9a6.43,6.43,0,0,0,2.139-5.022,6.229,6.229,0,0,0-2.131-4.917,8.256,8.256,0,0,0-5.756-1.944,8.275,8.275,0,0,0-5.735,1.947A6.2,6.2,0,0,0,6.42-65.918a6.457,6.457,0,0,0,2.172,4.957A7.981,7.981,0,0,0,14.307-58.91ZM6.494-51h15.43a1,1,0,0,1,1,1V0a1,1,0,0,1-1,1H6.494a1,1,0,0,1-1-1V-50A1,1,0,0,1,6.494-51Zm14.43,2H7.494V-1h13.43Z" transform="translate(748.5 163.5)"/>
    <text id="g" class="cls-1" transform="translate(785.5 163.5)"><tspan x="0" y="0">g</tspan></text>
    <path id="g_-_Contour" data-name="g - Contour" class="cls-2" d="M24.121,24.486a52.709,52.709,0,0,1-9.235-.736A27.728,27.728,0,0,1,7.667,21.5a1,1,0,0,1-.562-.9V7.617a1,1,0,0,1,1.5-.864,33.465,33.465,0,0,0,7.525,3.272,27.244,27.244,0,0,0,7.548,1.084,20.571,20.571,0,0,0,6.611-.978A12.84,12.84,0,0,0,35.1,7.262a12.292,12.292,0,0,0,2.982-4.5,16.7,16.7,0,0,0,1.008-5.984V-4.354C35.472.012,30.515,2.221,24.316,2.221c-6.661,0-12.029-2.388-15.954-7.1a23.777,23.777,0,0,1-4.4-8.229A35.4,35.4,0,0,1,2.516-23.584,39.6,39.6,0,0,1,4.123-35.269,26.179,26.179,0,0,1,9-44.392a21.459,21.459,0,0,1,7.592-5.872,23.138,23.138,0,0,1,9.63-1.957c5.406,0,9.723,1.787,12.867,5.318V-50a1,1,0,0,1,1-1h15.43a1,1,0,0,1,1,1V-5.713a36.28,36.28,0,0,1-2.077,12.7,25.261,25.261,0,0,1-6.291,9.586,26.833,26.833,0,0,1-10.24,5.956A44.511,44.511,0,0,1,24.121,24.486ZM9.105,19.969c3.733,1.671,8.78,2.517,15.016,2.517a42.533,42.533,0,0,0,13.165-1.861,24.852,24.852,0,0,0,9.486-5.506,23.278,23.278,0,0,0,5.794-8.835,34.3,34.3,0,0,0,1.951-12V-49H41.088v4.811a1,1,0,0,1-1,1h-.2a1,1,0,0,1-.84-.457,13.871,13.871,0,0,0-5.306-4.927,16.323,16.323,0,0,0-7.526-1.647,21.157,21.157,0,0,0-8.8,1.778,19.477,19.477,0,0,0-6.885,5.334,24.192,24.192,0,0,0-4.5,8.431A37.613,37.613,0,0,0,4.516-23.584,33.417,33.417,0,0,0,5.874-13.7,21.789,21.789,0,0,0,9.9-6.158a17.165,17.165,0,0,0,6.241,4.78,20.053,20.053,0,0,0,8.176,1.6,17.871,17.871,0,0,0,8.571-1.98,16.642,16.642,0,0,0,6.158-5.95,1,1,0,0,1,.847-.468h.2a1,1,0,0,1,1,1v3.955c0,4.981-1.549,8.994-4.6,11.927s-7.351,4.4-12.8,4.4a31.174,31.174,0,0,1-14.576-3.8ZM29.59-9.6a10.062,10.062,0,0,1-8.411-4.03c-1.983-2.592-2.989-6.123-2.989-10.5a26.89,26.89,0,0,1,.765-6.709,15.118,15.118,0,0,1,2.358-5.161A10.43,10.43,0,0,1,30.176-40.4a10.079,10.079,0,0,1,8.066,3.7,13.181,13.181,0,0,1,3.042,8.724v3.955c0,4.251-1.068,7.738-3.174,10.367A10.439,10.439,0,0,1,29.59-9.6ZM30.176-38.4a8.42,8.42,0,0,0-7.25,3.594c-1.816,2.482-2.737,6.078-2.737,10.689,0,3.922.867,7.045,2.577,9.28A8.053,8.053,0,0,0,29.59-11.6a8.419,8.419,0,0,0,6.959-3.312c1.814-2.264,2.734-5.331,2.734-9.116v-3.955a11.087,11.087,0,0,0-2.574-7.438A8.058,8.058,0,0,0,30.176-38.4Z" transform="translate(785.5 163.5)"/>
    <text id="n" class="cls-1" transform="translate(857.5 163.5)"><tspan x="0" y="0">n</tspan></text>
    <path id="n_-_Contour" data-name="n - Contour" class="cls-2" d="M54.785,1H39.4a1,1,0,0,1-1-1V-27.783c0-3.643-.636-6.38-1.889-8.135A6.155,6.155,0,0,0,31.1-38.4a7.22,7.22,0,0,0-5.827,2.72,10.8,10.8,0,0,0-2.353,7.169V0a1,1,0,0,1-1,1H6.494a1,1,0,0,1-1-1V-50a1,1,0,0,1,1-1h15.43a1,1,0,0,1,1,1v4.982a18.459,18.459,0,0,1,15.26-7.2c5.826,0,10.277,1.859,13.23,5.524a18.324,18.324,0,0,1,3.3,6.807,36.107,36.107,0,0,1,1.072,9.274V0A1,1,0,0,1,54.785,1ZM40.4-1H53.785V-30.615c0-6.6-1.322-11.591-3.929-14.827a11.935,11.935,0,0,0-4.792-3.567,18,18,0,0,0-6.881-1.212,17.571,17.571,0,0,0-8.8,2.152,17.953,17.953,0,0,0-6.413,6.5,1,1,0,0,1-.856.483h-.2a1,1,0,0,1-1-1V-49H7.494V-1h13.43V-28.516a12.741,12.741,0,0,1,2.823-8.456A9.231,9.231,0,0,1,31.1-40.4a8.126,8.126,0,0,1,7.039,3.324c1.5,2.1,2.261,5.229,2.261,9.3Z" transform="translate(857.5 163.5)"/>
    <text id="r" class="cls-1" transform="translate(990.5 163.5)"><tspan x="0" y="0">r</tspan></text>
    <path id="r_-_Contour" data-name="r - Contour" class="cls-2" d="M35.3-51.879a10.776,10.776,0,0,1,4.2.667,1,1,0,0,1,.606.919v14.209a1,1,0,0,1-.489.86,1,1,0,0,1-.989.019A12.462,12.462,0,0,0,32.617-36.6a8.337,8.337,0,0,0-7.068,3.3c-1.742,2.267-2.625,5.438-2.625,9.425V0a1,1,0,0,1-1,1H6.494a1,1,0,0,1-1-1V-50a1,1,0,0,1,1-1h15.43a1,1,0,0,1,1,1v5.168A13.518,13.518,0,0,1,35.3-51.879Zm2.809,2.3a11.02,11.02,0,0,0-2.809-.3,11.89,11.89,0,0,0-7.446,2.331,15.367,15.367,0,0,0-4.8,7.164,1,1,0,0,1-.941.661h-.2a1,1,0,0,1-1-1V-49H7.494V-1h13.43V-23.877c0-4.437,1.022-8.018,3.039-10.643A10.349,10.349,0,0,1,32.617-38.6a15.223,15.223,0,0,1,5.494.954Z" transform="translate(990.5 163.5)"/>
    <text id="e-2" data-name="e" class="cls-1" transform="translate(926.5 163.5)"><tspan x="0" y="0">e</tspan></text>
    <path id="e_-_Contour-2" data-name="e - Contour" class="cls-2" d="M29,2.221A33.018,33.018,0,0,1,17.913.484,22.381,22.381,0,0,1,9.5-4.787,22.528,22.528,0,0,1,4.246-13.2,32.8,32.8,0,0,1,2.516-24.219a33.423,33.423,0,0,1,1.868-11.5,24.547,24.547,0,0,1,5.649-8.93,25.359,25.359,0,0,1,8.387-5.677,26.519,26.519,0,0,1,10.1-1.893,28.052,28.052,0,0,1,10.057,1.69,19.935,19.935,0,0,1,7.6,5.127,22.293,22.293,0,0,1,4.7,8.01A32.082,32.082,0,0,1,52.416-27.1v6.494a1,1,0,0,1-1,1H19.909a11.689,11.689,0,0,0,.946,3.34,8.368,8.368,0,0,0,2.386,3.043c2.095,1.663,5.217,2.505,9.278,2.505a28.84,28.84,0,0,0,7.491-.942,23.977,23.977,0,0,0,6.481-2.812,1,1,0,0,1,1.015-.027,1,1,0,0,1,.515.875V-2.49a1,1,0,0,1-.528.882,30.5,30.5,0,0,1-8.241,2.881A51.183,51.183,0,0,1,29,2.221Zm-.488-52.441a24.532,24.532,0,0,0-9.338,1.744,23.371,23.371,0,0,0-7.726,5.236,22.561,22.561,0,0,0-5.19,8.209A31.44,31.44,0,0,0,4.516-24.219,30.822,30.822,0,0,0,6.13-13.868,20.544,20.544,0,0,0,10.913-6.2a20.4,20.4,0,0,0,7.672,4.8A31.038,31.038,0,0,0,29,.221C35.912.221,41.633-.9,46.021-3.1v-8.793a28.391,28.391,0,0,1-13.5,3.174C28-8.717,24.455-9.706,22-11.656c-2.5-1.988-3.917-4.975-4.2-8.878a1,1,0,0,1,.265-.753,1,1,0,0,1,.732-.319H50.416V-27.1a30.1,30.1,0,0,0-1.442-9.652,20.306,20.306,0,0,0-4.275-7.3,17.952,17.952,0,0,0-6.843-4.615A26.073,26.073,0,0,0,28.516-50.221Zm8.594,21.143H18.7a1,1,0,0,1-.751-.339,1,1,0,0,1-.241-.787,15,15,0,0,1,3.537-8.2,9.294,9.294,0,0,1,7.171-3.415c3.2,0,5.655,1.028,7.3,3.057,1.59,1.965,2.4,4.887,2.4,8.686A1,1,0,0,1,37.109-29.078Zm-17.233-2H36.089c-.121-2.833-.768-4.993-1.929-6.428-1.26-1.557-3.138-2.315-5.741-2.315a7.281,7.281,0,0,0-5.671,2.737A12.658,12.658,0,0,0,19.876-31.078Z" transform="translate(926.5 163.5)"/>
  </g>
</svg>
